<?xml version="1.0" encoding="utf-8"?>

<svg xmlns="http://www.w3.org/2000/svg" xmlns:xlink="http://www.w3.org/1999/xlink" 
  height="512" width="512" viewBox="0 0 512 512">

  <image href="https://s0.gifyu.com/images/hello_kitty_Hello_Kitty_Head_ClipArt_in_PNG_File.png" height="512" width="512" />

  <rect width="512" height="512" stroke="red" fill="rgba(255,255,255,0.95)" opacity="0.95" ></rect>

  <text x="2" y="12" font-size="12" text-anchor="start" fill="red">0</text>
  <path d="M256  64 H0 H512" stroke="lightgray" fill="white"></path>
  <text x="2" y="68" font-size="12" text-anchor="start" fill="red">64</text>
  <path d="M256 128 H0 H512" stroke="lightgray" fill="white"></path>
  <text x="2" y="132" font-size="12" text-anchor="start" fill="red">128</text>
  <path d="M256 192 H0 H512" stroke="lightgray" fill="white"></path>
  <text x="2" y="196" font-size="12" text-anchor="start" fill="red">192</text>
  <path d="M256 256 H0 H512" stroke="lightgray" fill="white"></path>
  <text x="2" y="260" font-size="12" text-anchor="start" fill="red">256</text>
  <path d="M256 320 H0 H512" stroke="lightgray" fill="white"></path>
  <text x="2" y="324" font-size="12" text-anchor="start" fill="red">320</text>
  <path d="M256 384 H0 H512" stroke="lightgray" fill="white"></path>
  <text x="2" y="388" font-size="12" text-anchor="start" fill="red">384</text>
  <path d="M256 448 H0 H512" stroke="lightgray" fill="white"></path>
  <text x="2" y="452" font-size="12" text-anchor="start" fill="red">448</text>
  <text x="2" y="510" font-size="12" text-anchor="start" fill="red">512</text>

  <path d="M64  0 V512" stroke="lightgray" fill="white"></path>
  <text x="58" y="12" font-size="12" text-anchor="start" fill="red">64</text>
  <path d="M128  0 V512" stroke="lightgray" fill="white"></path>
  <text x="118" y="12" font-size="12" text-anchor="start" fill="red">128</text>
  <path d="M195  0 V512" stroke="lightgray" fill="white"></path>
  <text x="186" y="12" font-size="12" text-anchor="start" fill="red">192</text>
  <path d="M256  0 V512" stroke="lightgray" fill="white"></path>
  <text x="246" y="12" font-size="12" text-anchor="start" fill="red">256</text>
  <path d="M320  0 V512" stroke="lightgray" fill="white"></path>
  <text x="310" y="12" font-size="12" text-anchor="start" fill="red">320</text>
  <path d="M384  0 V512" stroke="lightgray" fill="white"></path>
  <text x="374" y="12" font-size="12" text-anchor="start" fill="red">384</text>
  <path d="M448  0 V512" stroke="lightgray" fill="white"></path>
  <text x="438" y="12" font-size="12" text-anchor="start" fill="red">448</text>
  <text x="492" y="12" font-size="12" text-anchor="start" fill="red">512</text>

  <path d="M256 256 V270 V242 M256 256 H270 H242" stroke="black" fill="white"></path>

  <text x="254" y="250" font-size="16" text-anchor="middle" fill="red">(256, 256)</text>

  <ellipse fill="#77DD47" stroke="#246614" stroke-width="5" cx="256" cy="270" rx="200" ry="150" opacity="0.2"/>

  <path d="M456 256 A200 140, 0, 0, 0, 56 256" stroke-width="10" stroke="#F00" fill="none" opacity="0.3"/>

  <circle id="c1" cx="456" cy="256" r="1" stroke="red" fill="none">
    <animate attributeName="r" to="10" dur="2s" repeatCount="indefinite"/>
  </circle>

  <circle id="c2" cx="56" cy="256" r="1" stroke="red" fill="none">
    <animate attributeName="r" to="10" dur="2s" repeatCount="indefinite"/>
  </circle>

  <circle cx="0" cy="0" r="1" stroke="blue" fill="none">
    <animateMotion dur="6s" path="M 379.69922 94.496094 A 44.919916 70.173728 42.70708 0 0 379.47852 94.498047 A 44.919916 70.173728 42.70708 0 0 322.66992 123.92383 A 44.919916 70.173728 42.70708 0 0 315.56055 132.45898 A 194.47449 154.0684 0 0 0 239.19336 120.08203 A 194.47449 154.0684 0 0 0 157.19922 134.44727 A 70.173728 44.919916 41.764482 0 0 145.68359 122.46094 A 70.173728 44.919916 41.764482 0 0 90.792969 98.458984 A 70.173728 44.919916 41.764482 0 0 63.421875 109.22656 A 70.173728 44.919916 41.764482 0 0 80.84375 184.71484 A 194.47449 154.0684 0 0 0 44.71875 274.15039 A 194.47449 154.0684 0 0 0 239.19336 428.2207 A 194.47449 154.0684 0 0 0 433.66797 274.15039 A 194.47449 154.0684 0 0 0 393.01172 179.87695 A 44.919916 70.173728 42.70708 0 0 403.27344 102.82617 A 44.919916 70.173728 42.70708 0 0 379.69922 94.496094 z" repeatCount="indefinite" rotate="auto"/>
    <animate attributeName="r" to="15" dur="6s" repeatCount="indefinite"/>
  </circle>
<path d="M 379.69922 94.496094 A 44.919916 70.173728 42.70708 0 0 379.47852 94.498047 A 44.919916 70.173728 42.70708 0 0 322.66992 123.92383 A 44.919916 70.173728 42.70708 0 0 315.56055 132.45898 A 194.47449 154.0684 0 0 0 239.19336 120.08203 A 194.47449 154.0684 0 0 0 157.19922 134.44727 A 70.173728 44.919916 41.764482 0 0 145.68359 122.46094 A 70.173728 44.919916 41.764482 0 0 90.792969 98.458984 A 70.173728 44.919916 41.764482 0 0 63.421875 109.22656 A 70.173728 44.919916 41.764482 0 0 80.84375 184.71484 A 194.47449 154.0684 0 0 0 44.71875 274.15039 A 194.47449 154.0684 0 0 0 239.19336 428.2207 A 194.47449 154.0684 0 0 0 433.66797 274.15039 A 194.47449 154.0684 0 0 0 393.01172 179.87695 A 44.919916 70.173728 42.70708 0 0 403.27344 102.82617 A 44.919916 70.173728 42.70708 0 0 379.69922 94.496094 z" stroke="red" fill="none"/>

</svg>
    