<?xml version="1.0" encoding="utf-8"?>
<!-- Generator: Adobe Illustrator 16.0.0, SVG Export Plug-In . SVG Version: 6.00 Build 0)  -->
<!DOCTYPE svg PUBLIC "-//W3C//DTD SVG 1.1//EN" "http://www.w3.org/Graphics/SVG/1.1/DTD/svg11.dtd">
<svg version="1.1" id="Layer_1" xmlns="http://www.w3.org/2000/svg" xmlns:xlink="http://www.w3.org/1999/xlink" x="0px" y="0px"
	  viewBox="0 0 3000 3000" enable-background="new 0 0 3000 3000" xml:space="preserve">
<g>
	<path fill="#FBF219" d="M1499.999,721.131c711.616,0,1288.546,348.809,1288.546,778.869c0,430.24-576.93,778.87-1288.546,778.87
		c-711.797,0-1288.724-348.63-1288.724-778.87C211.275,1069.939,788.202,721.131,1499.999,721.131z M2595.508,1723.028
		c59.982-91.975,88.884-201.579,61.801-308.276c-15.814-61.801-50.351-122.693-91.43-175.04
		c-65.437-83.433-147.592-145.597-235.568-196.491c-67.617-38.898-138.688-71.251-211.758-97.427
		c-57.439-20.54-116.15-37.262-175.586-51.803c27.989,33.444,45.077,55.255,60.89,79.067c24.356,37.08,45.261,79.067,50.714,123.238
		c4.726,39.261-2.547,79.977-23.085,114.513c-18.357,31.264-47.44,57.62-80.887,74.162c-36.896,18.358-79.431,24.901-118.329,17.629
		c-23.085-4.361-45.077-13.63-63.255-27.265c-46.169-33.989-68.706-95.244-80.885-153.774
		c-9.272-44.35-12.724-87.247-16.541-130.689c-4.363-50.168-9.453-100.88-14.543-151.594
		c-26.901,39.807-53.804,79.614-80.705,119.421c-25.446,0.182-50.895,0.182-76.342,0.363c-25.445-0.182-51.076-0.182-76.523-0.363
		c-26.9-39.807-53.802-79.614-80.703-119.421c-4.909,50.714-9.998,101.426-14.541,151.594c-3.818,43.442-7.09,86.34-16.358,130.689
		c-12.179,58.53-34.899,119.785-80.889,153.774c-18.358,13.635-40.169,22.903-63.253,27.265
		c-39.08,7.272-81.433,0.729-118.513-17.629c-33.445-16.542-62.346-42.898-80.886-74.162
		c-20.358-34.536-27.812-75.252-22.904-114.513c5.454-44.171,26.175-86.158,50.713-123.238c15.633-23.813,32.9-45.623,60.711-79.067
		c-59.255,14.541-117.967,31.263-175.403,51.803c-73.071,26.176-144.143,58.528-211.761,97.427
		c-88.154,50.895-170.132,113.059-235.75,196.491c-41.079,52.347-75.615,113.239-91.247,175.04
		c-27.083,106.697,1.818,216.302,61.619,308.276c63.073,96.7,160.318,173.769,262.834,232.843
		c67.073,38.535,136.326,69.436,205.216,95.063c-21.995-27.266-43.806-54.528-63.62-84.703
		c-25.627-39.261-47.44-83.432-45.44-130.145c1.999-42.17,23.447-86.521,59.438-109.243c39.443-25.084,96.155-24.354,136.506-3.815
		c51.077,25.81,75.979,83.065,100.699,140.505c10.908-14.358,21.631-28.537,33.082-42.715c20.72-25.628,43.44-50.712,73.251-64.891
		c35.626-17.088,81.434-18.358,117.604-3.09c43.261,18.176,72.706,59.801,97.063,101.427c25.265,43.079,45.077,86.52,63.074,131.052
		c19.994,49.077,37.987,99.791,55.982,150.32c17.995-50.529,35.992-101.243,55.804-150.32
		c18.176-44.532,37.808-87.973,63.073-131.052c24.357-41.626,53.984-83.251,97.062-101.427
		c36.173-15.269,81.979-13.998,117.785,3.09c29.63,14.179,52.351,39.263,73.071,64.891c11.452,14.178,22.358,28.356,33.081,42.715
		c24.902-57.439,49.805-114.695,100.881-140.505c40.353-20.539,97.063-21.269,136.508,3.815
		c35.808,22.723,57.438,67.073,59.255,109.243c2.181,46.713-19.631,90.884-45.442,130.145
		c-19.631,30.175-41.623,57.438-63.437,84.703c68.891-25.628,138.143-56.528,205.033-95.063
		C2435.189,1896.797,2532.616,1819.729,2595.508,1723.028z"/>
	<path d="M1499.999,646.605C747.122,646.605,136.75,1028.679,136.75,1500c0,471.32,610.372,853.395,1363.249,853.395
		c752.878,0,1363.251-382.074,1363.251-853.395C2863.25,1028.679,2252.877,646.605,1499.999,646.605z M1499.999,2278.87
		c-711.797,0-1288.724-348.63-1288.724-778.87c0-430.061,576.927-778.869,1288.724-778.869
		c711.616,0,1288.546,348.809,1288.546,778.869C2788.545,1930.24,2211.615,2278.87,1499.999,2278.87z"/>
	<path d="M2595.508,1723.028c-62.892,96.7-160.318,173.769-262.835,232.843c-66.891,38.535-136.143,69.436-205.033,95.063
		c21.813-27.266,43.807-54.528,63.437-84.703c25.812-39.261,47.623-83.432,45.442-130.145
		c-1.816-42.17-23.447-86.521-59.255-109.243c-39.445-25.084-96.155-24.354-136.508-3.815
		c-51.076,25.81-75.979,83.065-100.881,140.505c-10.723-14.358-21.629-28.537-33.081-42.715
		c-20.721-25.628-43.441-50.712-73.071-64.891c-35.807-17.088-81.612-18.358-117.785-3.09
		c-43.077,18.176-72.704,59.801-97.062,101.427c-25.266,43.079-44.897,86.52-63.073,131.052
		c-19.812,49.077-37.809,99.791-55.804,150.32c-17.992-50.529-35.988-101.243-55.982-150.32
		c-17.997-44.532-37.808-87.973-63.074-131.052c-24.357-41.626-53.803-83.251-97.063-101.427
		c-36.17-15.269-81.978-13.998-117.604,3.09c-29.811,14.179-52.531,39.263-73.251,64.891
		c-11.451,14.178-22.174,28.356-33.082,42.715c-24.721-57.439-49.622-114.695-100.699-140.505
		c-40.351-20.539-97.063-21.269-136.506,3.815c-35.99,22.723-57.438,67.073-59.438,109.243c-2,46.713,19.813,90.884,45.44,130.145
		c19.814,30.175,41.625,57.438,63.62,84.703c-68.89-25.628-138.143-56.528-205.216-95.063
		c-102.516-59.074-199.761-136.143-262.834-232.843c-59.801-91.975-88.702-201.579-61.619-308.276
		c15.632-61.801,50.168-122.693,91.247-175.04c65.618-83.433,147.596-145.597,235.75-196.491
		c67.618-38.898,138.689-71.251,211.761-97.427c57.437-20.54,116.148-37.262,175.403-51.803
		c-27.811,33.444-45.078,55.257-60.711,79.067c-24.538,37.08-45.259,79.069-50.713,123.238
		c-4.907,39.261,2.546,79.977,22.904,114.513c18.54,31.264,47.44,57.62,80.886,74.162c37.08,18.358,79.433,24.901,118.513,17.629
		c23.084-4.361,44.895-13.63,63.253-27.265c45.989-33.989,68.71-95.244,80.889-153.774c9.269-44.35,12.54-87.247,16.358-130.689
		c4.543-50.168,9.632-100.88,14.541-151.594c26.901,39.807,53.803,79.614,80.703,119.421c25.447,0.182,51.078,0.182,76.523,0.363
		c25.45-0.182,50.896-0.182,76.342-0.363c26.901-39.807,53.804-79.614,80.705-119.421c5.09,50.714,10.18,101.426,14.543,151.594
		c3.817,43.442,7.269,86.34,16.541,130.689c12.179,58.53,34.717,119.785,80.885,153.774c18.178,13.635,40.17,22.903,63.255,27.265
		c38.898,7.272,81.433,0.729,118.329-17.629c33.446-16.542,62.529-42.898,80.887-74.162c20.538-34.536,27.811-75.252,23.085-114.513
		c-5.453-44.169-26.357-86.158-50.714-123.238c-15.813-23.811-32.9-45.623-60.89-79.067
		c59.436,14.541,118.146,31.263,175.586,51.803c73.069,26.176,144.141,58.528,211.758,97.427
		c87.974,50.895,170.132,113.059,235.568,196.491c41.079,52.347,75.615,113.239,91.43,175.04
		C2684.392,1521.449,2655.49,1631.054,2595.508,1723.028z"/>
</g>
</svg>
